<?xml version="1.0" encoding="UTF-8"?>
<svg version="1.1" xmlns="http://www.w3.org/2000/svg" width="800" height="400">
<path d="M0 0 C8.58 0 17.16 0 26 0 C25.33781758 3.97309453 24.8649245 6.77647813 23.49145508 10.36645508 C23.18124924 11.18538239 22.8710434 12.00430969 22.55143738 12.84805298 C22.04064384 14.17043472 22.04064384 14.17043472 21.51953125 15.51953125 C21.15946487 16.46476654 20.7993985 17.41000183 20.42842102 18.38388062 C19.22862665 21.52889122 18.02063842 24.67068622 16.8125 27.8125 C15.95712128 30.04908276 15.10214921 32.28582107 14.24755859 34.52270508 C6.99285312 53.49128076 -0.33030377 72.4337297 -7.65405273 91.37573242 C-16.22488001 113.54796155 -24.70353581 135.75491447 -33.17182922 157.96646118 C-37.87312971 170.29483333 -42.59193399 182.6164944 -47.3125 194.9375 C-47.70779907 195.96933411 -48.10309814 197.00116821 -48.51037598 198.06427002 C-50.67318879 203.70966493 -52.83651496 209.35486259 -55 215 C-63.91 215 -72.82 215 -82 215 C-79.75017988 204.87580946 -79.75017988 204.87580946 -78.31445312 201.22607422 C-77.99157822 200.39553024 -77.66870331 199.56498627 -77.33604431 198.70927429 C-76.81392113 197.39525383 -76.81392113 197.39525383 -76.28125 196.0546875 C-75.91161636 195.10846024 -75.54198273 194.16223297 -75.16114807 193.18733215 C-74.36362144 191.14773059 -73.56315831 189.10927527 -72.76004028 187.0718689 C-71.03222618 182.68820336 -69.31894984 178.29890081 -67.60475159 173.90989685 C-66.71536411 171.6330555 -65.82525067 169.35649761 -64.93443298 167.08021545 C-60.58853487 155.97032878 -56.31878577 144.83195765 -52.0625 133.6875 C-50.57208314 129.78888325 -49.0810164 125.89051522 -47.58984375 121.9921875 C-47.03018921 120.52884224 -47.03018921 120.52884224 -46.45922852 119.03593445 C-41.20502496 105.30184095 -35.92272756 91.57853146 -30.63916016 77.85571289 C-29.80498759 75.68897463 -28.97084057 73.52222654 -28.13671875 71.35546875 C-27.72145935 70.27679031 -27.30619995 69.19811188 -26.87835693 68.08674622 C-24.18062256 61.07617882 -21.49046036 54.0627452 -18.80499268 47.04747009 C-16.96156515 42.23235428 -15.11595284 37.41807719 -13.27020264 32.60385132 C-12.38878368 30.30301885 -11.50843552 28.00177585 -10.62921143 25.70010376 C-9.41049095 22.50995122 -8.1880624 19.32124246 -6.96484375 16.1328125 C-6.6063887 15.19154007 -6.24793365 14.25026764 -5.87861633 13.2804718 C-5.54218613 12.4056163 -5.20575592 11.5307608 -4.85913086 10.62939453 C-4.57081894 9.87578644 -4.28250702 9.12217834 -3.98545837 8.34573364 C-2.79142466 5.50351816 -1.37868817 2.75737635 0 0 Z " fill="#000000" transform="translate(428,77)"/>
<path d="M0 0 C0 7.92 0 15.84 0 24 C-9.9693139 29.63920786 -19.97262581 35.2147639 -30 40.75 C-30.62460114 41.09479401 -31.24920227 41.43958801 -31.89273071 41.79483032 C-41.32664212 46.99965829 -50.79356048 52.14054021 -60.27832031 57.25219727 C-68.47624559 61.68476414 -76.59532179 66.25094987 -84.69287109 70.86401367 C-85.59344238 71.37681885 -86.49401367 71.88962402 -87.421875 72.41796875 C-88.60668457 73.09508911 -88.60668457 73.09508911 -89.81542969 73.78588867 C-91.85144219 74.91743652 -93.90801258 75.97635658 -96 77 C-95.10023438 77.44988281 -94.20046875 77.89976562 -93.2734375 78.36328125 C-92.66556396 78.6672583 -92.05769043 78.97123535 -91.43139648 79.28442383 C-90.02739176 79.98634285 -88.62325164 80.68799111 -87.21899414 81.3894043 C-83.09207066 83.45132301 -78.9679246 85.51856144 -74.84765625 87.59375 C-63.7073947 93.19696663 -52.50984349 98.66101135 -41.25 104.01953125 C-34.61666122 107.17749283 -27.99849576 110.36658766 -21.38259888 113.56088257 C-20.09874488 114.18074292 -18.81479102 114.80039646 -17.5307312 115.41983032 C-15.72729174 116.2898332 -13.92418717 117.16053017 -12.12109375 118.03125 C-11.0839624 118.53205078 -10.04683105 119.03285156 -8.97827148 119.54882812 C-5.975405 121.01198399 -2.98771246 122.50614377 0 124 C0 131.92 0 139.84 0 148 C-3.90866574 147.21826685 -6.24409509 146.56989538 -9.67797852 144.87719727 C-11.03666801 144.21269814 -11.03666801 144.21269814 -12.42280579 143.53477478 C-13.88607552 142.80793236 -13.88607552 142.80793236 -15.37890625 142.06640625 C-16.92054695 141.3090493 -16.92054695 141.3090493 -18.49333191 140.53639221 C-21.85257116 138.88414438 -25.20755465 137.22344702 -28.5625 135.5625 C-30.88228279 134.41934467 -33.20227114 133.27660638 -35.52246094 132.13427734 C-50.41764469 124.79327729 -65.27940956 117.38595748 -80.11767578 109.93066406 C-89.2573562 105.34277635 -98.44882462 100.88015588 -107.69458008 96.5090332 C-114.60093172 93.23087913 -121.31731023 89.71260543 -128 86 C-128 80.72 -128 75.44 -128 70 C-126.67871094 69.28457031 -125.35742188 68.56914062 -123.99609375 67.83203125 C-113.26281923 62.00658437 -102.58275004 56.09882931 -91.96264648 50.06958008 C-84.49898094 45.83618548 -77.00529945 41.65908253 -69.5 37.5 C-60.22295925 32.35789884 -50.97266336 27.17201379 -41.74707031 21.93823242 C-36.40178416 18.91013996 -31.04408673 15.90576133 -25.671875 12.92578125 C-25.05320557 12.58259857 -24.43453613 12.23941589 -23.79711914 11.88583374 C-20.7638251 10.20409431 -17.72927663 8.52465521 -14.69335938 6.84765625 C-13.60345703 6.244375 -12.51355469 5.64109375 -11.390625 5.01953125 C-10.42157227 4.48432861 -9.45251953 3.94912598 -8.45410156 3.39770508 C-2.48838428 0 -2.48838428 0 0 0 Z " fill="#000000" transform="translate(284,109)"/>
<path d="M0 0 C3.48180904 0.56349033 6.09899999 1.4062881 9.1328125 3.1953125 C9.92461914 3.65599121 10.71642578 4.11666992 11.53222656 4.59130859 C12.3878418 5.09742676 13.24345703 5.60354492 14.125 6.125 C16.01730097 7.22555583 17.91057843 8.32443392 19.8046875 9.421875 C20.80983398 10.00517578 21.81498047 10.58847656 22.85058594 11.18945312 C28.28302214 14.31247226 33.76719341 17.34156395 39.25 20.375 C41.55480489 21.65213191 43.859492 22.92947641 46.1640625 24.20703125 C47.87190918 25.15376709 47.87190918 25.15376709 49.61425781 26.11962891 C58.05648789 30.80826866 66.47552836 35.53849248 74.8984375 40.26171875 C78.03552164 42.01990823 81.17381873 43.77591344 84.3125 45.53125 C94.88328574 51.4435852 105.44831521 57.36613264 116 63.3125 C116.99209473 63.8701001 117.98418945 64.4277002 119.00634766 65.00219727 C119.91175293 65.51322998 120.8171582 66.0242627 121.75 66.55078125 C122.54921875 67.00106689 123.3484375 67.45135254 124.171875 67.9152832 C126 69 126 69 127 70 C127.07325168 72.86267567 127.09238205 75.700719 127.0625 78.5625 C127.05798828 79.36880859 127.05347656 80.17511719 127.04882812 81.00585938 C127.03700518 83.00393756 127.01906914 85.00197783 127 87 C122.58044809 89.22249944 118.15936403 91.44191619 113.73706055 93.65893555 C112.24481243 94.40751526 110.75292832 95.1568212 109.26147461 95.90698242 C100.15146413 100.48831717 91.0019263 104.97225224 81.79296875 109.3515625 C70.07233628 114.92873461 58.46768458 120.72502806 46.875 126.5625 C35.37226714 132.35452581 23.8592894 138.1225098 12.2578125 143.71484375 C11.36963837 144.1476918 10.48146423 144.58053986 9.56637573 145.02650452 C8.74670319 145.4185759 7.92703064 145.81064728 7.08251953 146.21459961 C6.36403839 146.56074814 5.64555725 146.90689667 4.90530396 147.26353455 C3 148 3 148 0 148 C0 140.08 0 132.16 0 124 C13.21241615 117.34618914 26.43827409 110.73893646 39.79882812 104.38647461 C47.84465132 100.55948403 55.86943001 96.69023852 63.88693237 92.80435181 C65.31003183 92.11467089 66.73330373 91.42534566 68.1567688 90.73641968 C77.47332278 86.22699493 86.75354305 81.65164719 96 77 C95.33282959 76.64397705 94.66565918 76.2879541 93.97827148 75.92114258 C82.12405722 69.58734767 70.29843274 63.2251619 58.625 56.5625 C51.27006975 52.3652985 43.86184058 48.28447273 36.38330078 44.3125 C33.97447473 43.03244517 31.57525094 41.73673521 29.18310547 40.42578125 C23.8626543 37.5243926 18.60194802 34.76801166 13 32.44921875 C2.86206783 27.99799734 2.86206783 27.99799734 0 24 C-2.16366637 16.17217875 -1.1786784 7.93007193 0 0 Z " fill="#000000" transform="translate(516,109)"/>
</svg>
