<?xml version="1.0" encoding="UTF-8"?>
<svg version="1.1" xmlns="http://www.w3.org/2000/svg" width="32" height="32">
<path d="M0 0 C0.66 0.33 1.32 0.66 2 1 C2 1.99 2 2.98 2 4 C3.60681641 3.98259766 3.60681641 3.98259766 5.24609375 3.96484375 C6.64322743 3.95546701 8.04036299 3.94636669 9.4375 3.9375 C10.14455078 3.92912109 10.85160156 3.92074219 11.58007812 3.91210938 C13.38693559 3.90346412 15.19387603 3.94779989 17 4 C18 5 18 5 18 11 C12.72 11 7.44 11 2 11 C1.67 12.32 1.34 13.64 1 15 C-2.99500618 13.6302836 -5.80009492 11.74277578 -9 9 C-8.63030147 6.34385824 -8.29524408 5.25241746 -6.22265625 3.48046875 C-5.50980469 3.05378906 -4.79695312 2.62710937 -4.0625 2.1875 C-3.35222656 1.74792969 -2.64195312 1.30835937 -1.91015625 0.85546875 C-1.27980469 0.57316406 -0.64945313 0.29085938 0 0 Z " fill="#3E71FF" transform="translate(9,15)"/>
<path d="M0 0 C3.99500618 1.3697164 6.80009492 3.25722422 10 6 C9.78515625 7.828125 9.78515625 7.828125 9 10 C6.93359375 11.484375 6.93359375 11.484375 4.4375 12.75 C3.61121094 13.17796875 2.78492187 13.6059375 1.93359375 14.046875 C1.29550781 14.36140625 0.65742188 14.6759375 0 15 C-0.33 13.68 -0.66 12.36 -1 11 C-2.60681641 11.01740234 -2.60681641 11.01740234 -4.24609375 11.03515625 C-5.64322743 11.04453299 -7.04036299 11.05363331 -8.4375 11.0625 C-9.14455078 11.07087891 -9.85160156 11.07925781 -10.58007812 11.08789062 C-12.38693559 11.09653588 -14.19387603 11.05220011 -16 11 C-16.33 10.67 -16.66 10.34 -17 10 C-17 8.02 -17 6.04 -17 4 C-11.72 4 -6.44 4 -1 4 C-0.67 2.68 -0.34 1.36 0 0 Z " fill="#15A6FF" transform="translate(22,2)"/>
</svg>
